<svg width="700" height="700" viewBox="0 0 700 700" fill="none" xmlns="http://www.w3.org/2000/svg">
<path d="M360 0C371.046 0 380 8.95431 380 20V74.6582C508.893 88.7494 611.251 191.107 625.342 320H680C691.046 320 700 328.954 700 340V360C700 371.046 691.046 380 680 380H625.449C611.779 509.363 509.226 612.213 380 626.341V680C380 691.046 371.046 700 360 700H340C328.954 700 320 691.046 320 680V626.448C190.304 612.743 87.2558 509.696 73.5508 380H20C8.95431 380 3.2215e-07 371.046 0 360V340C0 328.954 8.95431 320 20 320H73.6582C87.7858 190.774 190.637 88.2205 320 74.5508V20C320 8.95431 328.954 3.2215e-07 340 0H360ZM352.752 200.113C331.54 200.113 312.6 203.807 295.934 211.193C279.267 218.58 266.151 228.854 256.587 242.017C247.117 255.179 242.43 270.568 242.524 288.182C242.43 309.678 249.485 326.771 263.689 339.46C277.894 352.149 297.26 361.477 321.786 367.443L353.462 375.397C364.068 377.954 373.017 380.796 380.309 383.921C387.695 387.046 393.282 390.833 397.07 395.284C400.953 399.735 402.895 405.228 402.895 411.762C402.894 418.769 400.763 424.972 396.502 430.369C392.241 435.767 386.227 439.981 378.462 443.012C370.792 446.042 361.748 447.557 351.332 447.557C340.726 447.557 331.208 445.947 322.78 442.728C314.447 439.413 307.771 434.536 302.752 428.097C297.828 421.563 295.034 413.419 294.371 403.665H234.854C235.328 424.593 240.395 442.159 250.054 456.363C259.807 470.473 273.349 481.127 290.679 488.324C308.103 495.521 328.557 499.119 352.042 499.119C375.716 499.119 395.934 495.568 412.695 488.466C429.551 481.269 442.431 471.183 451.332 458.21C460.328 445.142 464.873 429.706 464.968 411.903C464.873 399.782 462.648 389.034 458.292 379.659C454.031 370.284 448.017 362.14 440.252 355.228C432.487 348.315 423.301 342.491 412.695 337.756C402.089 333.021 390.441 329.233 377.752 326.392L351.616 320.142C345.272 318.721 339.305 317.017 333.718 315.028C328.131 312.945 323.207 310.53 318.945 307.784C314.684 304.943 311.322 301.582 308.86 297.699C306.493 293.817 305.403 289.271 305.593 284.062C305.593 277.812 307.393 272.225 310.991 267.301C314.684 262.377 319.987 258.542 326.899 255.796C333.812 252.955 342.288 251.534 352.326 251.534C367.099 251.534 378.794 254.706 387.411 261.051C396.029 267.395 400.906 276.298 402.042 287.756H460.991C460.707 270.426 456.067 255.179 447.07 242.017C438.074 228.854 425.479 218.58 409.286 211.193C393.188 203.807 374.343 200.113 352.752 200.113Z" fill="url(#paint0_linear_21_97)"/>
<defs>
<linearGradient id="paint0_linear_21_97" x1="147" y1="162" x2="538.5" y2="553.5" gradientUnits="userSpaceOnUse">
<stop offset="0.2" stop-color="#5686FE"/>
<stop offset="1" stop-color="#FC2857"/>
</linearGradient>
</defs>
</svg>
